<svg id="Capa_1" enable-background="new 0 0 512 512" height="512" viewBox="0 0 512 512" width="512" xmlns="http://www.w3.org/2000/svg"><g><g><path d="m132.863 169.456s-29.184-39.317-28.36-95.396c0 0 16.5 3.927 31.063 0 28.544-7.697 56.629-64.326 106.111-65.976s59.077 21.442 59.077 21.442 18.203-10.821 45.384-7.147c40.685 5.498 76.422 67.48 40.1 152.627" fill="#565e75"/><path d="m341.142 135.727c-17.663-16.294-37.326-44.484-45.224-56.256-1.814-2.703-5.661-2.955-7.86-.554-39.844 43.518-91.456 58.02-114.551 62.531-7.036 1.374-12.1 7.547-12.1 14.716v46.586c0 52.244 42.352 94.596 94.596 94.596 52.244 0 94.596-42.352 94.596-94.596v-45.16c0-8.281-3.371-16.249-9.457-21.863z" fill="#fdd4bb"/><path d="m256.003 279.346c-52.244 0-94.596-42.352-94.596-94.596v18c0 52.244 42.352 94.596 94.596 94.596 52.244 0 94.596-42.352 94.596-94.596v-18c0 52.243-42.352 94.596-94.596 94.596z" fill="#f7c4a8"/><path d="m161.407 202.75v-33.408c-4.205-2.312-9.035-3.631-14.173-3.631-16.27 0-29.46 13.19-29.46 29.46s13.19 29.46 29.46 29.46c5.798 0 11.2-1.682 15.758-4.574-1.037-5.611-1.585-11.395-1.585-17.307z" fill="#ebbaa1"/><path d="m350.599 202.75v-33.408c4.205-2.312 9.035-3.631 14.173-3.631 16.27 0 29.46 13.19 29.46 29.46s-13.19 29.46-29.46 29.46c-5.798 0-11.2-1.682-15.758-4.574 1.038-5.611 1.585-11.395 1.585-17.307z" fill="#ebbaa1"/><path d="m147.235 206.631c-13.131 0-24.25-8.592-28.055-20.46-.91 2.838-1.406 5.86-1.406 9 0 16.27 13.19 29.46 29.46 29.46 5.798 0 11.2-1.682 15.758-4.574-1.024-5.537-1.565-11.242-1.58-17.072-4.207 2.318-9.035 3.646-14.177 3.646z" fill="#e8a990"/><path d="m364.772 206.631c-5.143 0-9.971-1.328-14.178-3.646-.014 5.83-.556 11.535-1.58 17.072 4.558 2.892 9.96 4.574 15.758 4.574 16.27 0 29.46-13.19 29.46-29.46 0-3.14-.496-6.162-1.405-9-3.805 11.868-14.924 20.46-28.055 20.46z" fill="#e8a990"/><path d="m300.307 286.343c-13.218 7.02-28.295 11.003-44.304 11.003-16.009 0-31.087-3.983-44.304-11.003-63.834 13.363-111.777 69.965-111.777 137.77v79.887h312.163v-79.887c0-67.805-47.943-124.406-111.778-137.77z" fill="#adf0ff"/><path d="m99.922 486h312.163v18h-312.163z" fill="#8deaf5"/><path d="m256.003 297.346c-16.129 0-31.312-4.041-44.601-11.159-.091 1.163-.151 2.334-.151 3.521 0 24.716 20.036 44.751 44.751 44.751s44.751-20.036 44.751-44.751c0-1.186-.06-2.358-.151-3.521-13.286 7.118-28.47 11.159-44.599 11.159z" fill="#ebbaa1"/><path d="m340.366 458.367h71.719v45.633h-71.719z" fill="#fdd4bb"/><path d="m99.922 458.367h71.719v45.633h-71.719z" fill="#fdd4bb" transform="matrix(-1 0 0 -1 271.563 962.367)"/><path d="m340.366 486h71.719v18h-71.719z" fill="#f7c4a8"/><path d="m99.922 486h71.719v18h-71.719z" fill="#f7c4a8" transform="matrix(-1 0 0 -1 271.563 990)"/><g fill="#ffde91"><ellipse cx="54.828" cy="169.203" rx="18.103" ry="18.103" transform="matrix(.707 -.707 .707 .707 -103.586 88.328)"/><ellipse cx="457.172" cy="147.608" rx="18.103" ry="18.103" transform="matrix(.973 -.23 .23 .973 -21.684 108.985)"/></g></g><g><path d="m213.246 496.957h-34.246v-38.199-42.967c0-4.155-3.367-7.522-7.522-7.522s-7.522 3.367-7.522 7.522v35.446h-56.814v-26.799c0-30.838 10.761-60.917 30.302-84.697 17.275-21.023 40.66-36.311 66.586-43.714 3.103 25.932 25.219 46.105 51.973 46.105 26.757 0 48.876-20.18 51.974-46.117 21.044 5.988 40.328 17.104 56.216 32.478 1.46 1.413 3.347 2.116 5.23 2.116 1.967 0 3.93-.766 5.406-2.291 2.889-2.985 2.811-7.747-.174-10.636-16.043-15.524-35.209-27.129-56.125-34.126 17.066-13.22 29.858-31.705 35.904-53.003 3.404 1.012 6.951 1.539 10.548 1.539 20.423 0 37.038-16.615 37.038-37.038 0-7.992-2.553-15.394-6.874-21.453 6.841-16.981 11.159-33.789 12.969-49.884 46.212-12.434 56.967-28.091 56.967-39.958 0-13.977-14.292-25.926-42.479-35.517-3.93-1.336-8.204.766-9.544 4.698-1.338 3.933.766 8.205 4.698 9.544 23.827 8.106 32.281 16.527 32.281 21.275 0 4.923-9.39 14.847-40.95 24.048.167-21.41-4.436-41.118-13.849-57.687-11.408-20.08-28.874-33.073-47.919-35.647-20.016-2.704-35.653 1.785-43.901 5.107-2.14-2.489-5.204-5.384-9.49-8.163-12.729-8.255-30.405-12.065-52.53-11.33-18.371.613-35.641 7.87-54.348 22.839-3.244 2.595-3.77 7.33-1.174 10.572 2.595 3.244 7.329 3.769 10.572 1.174 16.045-12.84 30.488-19.052 45.451-19.55 41.432-1.376 51.351 15.672 52.027 16.94.77 2.052 2.354 3.498 4.421 4.252 2.099.764 4.375.38 6.304-.741.164-.094 16.597-9.44 40.653-6.192 14.353 1.939 27.785 12.206 36.854 28.169 4.913 8.648 12.775 26.943 11.836 54.179-6.337 1.471-13.33 2.899-21.045 4.258-4.091.721-6.823 4.622-6.102 8.713.642 3.649 3.817 6.217 7.398 6.217.433 0 .873-.037 1.314-.116 6.044-1.065 11.69-2.175 16.977-3.323-1.592 10.703-4.537 22.495-9.339 35.344-5.384-3.055-11.598-4.809-18.217-4.809-2.246 0-4.482.213-6.679.616v-1.229c0-10.46-4.337-20.459-11.896-27.433-17.168-15.837-36.605-43.758-44.165-55.027-2.152-3.206-5.593-5.212-9.441-5.502-3.887-.3-7.6 1.189-10.227 4.06-38.977 42.569-90.377 56.385-110.668 60.348-10.547 2.061-18.202 11.366-18.202 22.126v2.661c-2.197-.403-4.433-.616-6.678-.616-4.048 0-7.943.662-11.592 1.868-3.678-5.981-9.831-17.174-14.952-32.177 5.71 1.221 11.832 2.399 18.413 3.523.429.073.855.109 1.275.109 3.598 0 6.779-2.59 7.405-6.256.7-4.095-2.053-7.981-6.148-8.68-9.595-1.639-18.107-3.385-25.652-5.19-2.021-8.779-3.482-18.4-3.921-28.703 6.812.696 16.371.907 25.439-1.539 13.15-3.545 25.443-15.27 37.332-26.607 3.007-2.867 3.119-7.628.253-10.634-2.867-3.007-7.627-3.118-10.634-.253-10.527 10.04-21.412 20.42-30.867 22.969-12.496 3.369-27.288-.024-27.424-.055-2.214-.528-4.559-.023-6.36 1.381-1.801 1.4-2.869 3.543-2.902 5.825-.175 11.867.932 22.981 2.792 33.194-28.778-8.882-37.521-18.249-37.521-23.032 0-3.93 5.456-9.132 14.596-13.913 11.18-5.85 27.917-11.239 48.403-15.588 4.063-.863 6.658-4.857 5.796-8.92-.864-4.063-4.86-6.658-8.92-5.796-49.711 10.553-74.918 25.43-74.918 44.217 0 11.877 10.732 27.454 56.471 39.836 5.819 20.48 14.052 35.784 18.998 43.833-7.603 6.788-12.401 16.654-12.401 27.624 0 20.423 16.615 37.038 37.038 37.038 3.597 0 7.144-.527 10.547-1.539 6.047 21.298 18.839 39.784 35.906 53.004-26.28 8.825-49.88 24.999-67.656 46.632-21.747 26.464-33.723 59.935-33.723 94.248v80.041c0 4.154 3.367 7.522 7.522 7.522h113.625c4.154 0 7.522-3.367 7.522-7.522 0-4.153-3.367-7.52-7.521-7.52zm42.757-169.868c-17.65 0-32.467-12.321-36.327-28.811 11.295 4.305 23.539 6.671 36.327 6.671s25.031-2.366 36.326-6.67c-3.86 16.489-18.676 28.81-36.326 28.81zm108.979-154.029c12.128 0 21.995 9.867 21.995 21.995s-9.867 21.995-21.995 21.995c-2.58 0-5.118-.454-7.512-1.325.549-4.283.833-8.647.833-13.077v-28.548c2.149-.683 4.406-1.04 6.679-1.04zm-217.957 43.99c-12.128 0-21.995-9.867-21.995-21.995s9.867-21.995 21.995-21.995c2.273 0 4.529.357 6.678 1.04v28.548c0 4.43.284 8.794.833 13.077-2.393.871-4.931 1.325-7.511 1.325zm21.722-14.402v-46.676c0-3.582 2.542-6.677 6.044-7.362 21.384-4.177 75.025-18.587 116.737-62.655 8.837 12.993 27.587 39.303 44.678 55.07 4.483 4.135 7.053 10.104 7.053 16.376v45.247c0 48.114-39.143 87.257-87.256 87.257-48.114 0-87.256-39.143-87.256-87.257zm-4.791 294.309h-56.814v-30.677h56.814z"/><path d="m382.061 336.738c-3.387 2.405-4.182 7.1-1.777 10.487 16.079 22.64 24.58 49.339 24.58 77.212v26.799h-56.814v-35.446c0-4.155-3.367-7.522-7.522-7.522-4.154 0-7.522 3.367-7.522 7.522v42.967 38.199h-89.703c-4.154 0-7.522 3.367-7.522 7.522 0 4.154 3.367 7.522 7.522 7.522h169.081c4.155 0 7.522-3.367 7.522-7.522v-80.041c0-31.012-9.461-60.724-27.359-85.923-2.403-3.386-7.099-4.184-10.486-1.776zm22.802 160.219h-56.813v-30.677h56.814v30.677z"/><path d="m217.09 228.233c-2.6 3.241-2.101 7.999 1.14 10.598 3.239 2.599 7.954 2.105 10.554-1.135 1.011-1.215 3.785-3.684 6.122-3.839.573.342 1.729 1.437 2.514 2.181 3.545 3.359 8.904 8.436 18.584 8.436 9.678 0 15.037-5.077 18.583-8.436.786-.744 1.941-1.839 2.515-2.181 2.332.155 5.101 2.616 6.115 3.833 2.605 3.203 7.314 3.707 10.54 1.118 3.24-2.599 3.76-7.334 1.16-10.573-.774-.965-7.859-9.428-18.042-9.428-5.971 0-9.822 3.648-12.634 6.312-2.991 2.834-4.717 4.313-8.237 4.313-3.521 0-5.246-1.479-8.238-4.313-2.811-2.664-6.662-6.312-12.633-6.312-10.184-.001-17.269 8.462-18.043 9.426z"/><path d="m195.531 194.282c1.469 1.468 3.395 2.203 5.319 2.203s3.85-.735 5.319-2.203l3.974-3.974 3.974 3.974c1.469 1.468 3.395 2.203 5.319 2.203s3.85-.735 5.319-2.203c2.937-2.938 2.937-7.7 0-10.638l-3.974-3.974 3.974-3.974c2.937-2.938 2.937-7.7 0-10.638-2.938-2.936-7.7-2.936-10.638 0l-3.974 3.974-3.974-3.974c-2.938-2.936-7.7-2.936-10.638 0-2.937 2.938-2.937 7.7 0 10.638l3.974 3.974-3.974 3.974c-2.938 2.938-2.938 7.7 0 10.638z"/><path d="m287.254 194.282c1.468 1.468 3.394 2.203 5.318 2.203s3.85-.735 5.319-2.204l3.973-3.974 3.973 3.974c1.469 1.469 3.393 2.204 5.319 2.204 1.924 0 3.85-.735 5.318-2.203 2.938-2.937 2.938-7.7.001-10.637l-3.975-3.975 3.975-3.975c2.937-2.937 2.937-7.7-.001-10.637-2.936-2.936-7.699-2.937-10.637.001l-3.973 3.974-3.973-3.974c-2.937-2.937-7.7-2.938-10.637-.001-2.938 2.937-2.938 7.7-.001 10.637l3.975 3.975-3.975 3.975c-2.938 2.937-2.938 7.7.001 10.637z"/><path d="m54.44 143.378c-14.149 0-25.66 11.511-25.66 25.659 0 14.149 11.511 25.66 25.66 25.66s25.66-11.511 25.66-25.66-11.511-25.659-25.66-25.659zm0 36.275c-5.854 0-10.617-4.763-10.617-10.616 0-5.854 4.763-10.616 10.617-10.616s10.617 4.762 10.617 10.616c0 5.853-4.763 10.616-10.617 10.616z"/><path d="m457.56 121.741c-14.149 0-25.66 11.511-25.66 25.659 0 14.149 11.511 25.66 25.66 25.66s25.66-11.511 25.66-25.66c0-14.148-11.511-25.659-25.66-25.659zm0 36.276c-5.854 0-10.616-4.763-10.616-10.617s4.763-10.615 10.616-10.615c5.854 0 10.617 4.762 10.617 10.615 0 5.854-4.763 10.617-10.617 10.617z"/></g></g></svg>